<?xml version="1.0" encoding="UTF-8" standalone="no"?>
<svg
   xmlns:dc="http://purl.org/dc/elements/1.1/"
   xmlns:cc="http://web.resource.org/cc/"
   xmlns:rdf="http://www.w3.org/1999/02/22-rdf-syntax-ns#"
   xmlns:svg="http://www.w3.org/2000/svg"
   xmlns="http://www.w3.org/2000/svg"
   xmlns:sodipodi="http://sodipodi.sourceforge.net/DTD/sodipodi-0.dtd"
   xmlns:inkscape="http://www.inkscape.org/namespaces/inkscape"
   width="197.19"
   height="145.19"
   id="svg2"
   sodipodi:version="0.32"
   inkscape:version="0.44.1"
   sodipodi:docname="SignalingGame.svg"
   sodipodi:docbase="C:\Documents and Settings\Owner\My Documents\School\GT Examples"
   version="1.0">
  <metadata
     id="metadata249">
    <rdf:RDF>
      <cc:Work
         rdf:about="">
        <dc:format>image/svg+xml</dc:format>
        <dc:type
           rdf:resource="http://purl.org/dc/dcmitype/StillImage" />
      </cc:Work>
    </rdf:RDF>
  </metadata>
  <sodipodi:namedview
     inkscape:window-height="573"
     inkscape:window-width="853"
     inkscape:pageshadow="2"
     inkscape:pageopacity="0.0"
     guidetolerance="10.0"
     gridtolerance="10.0"
     objecttolerance="10.0"
     borderopacity="1.0"
     bordercolor="#666666"
     pagecolor="#ffffff"
     id="base"
     width="197.19px"
     height="145.19px"
     inkscape:zoom="2.6328471"
     inkscape:cx="97.094002"
     inkscape:cy="71.595497"
     inkscape:window-x="110"
     inkscape:window-y="145"
     inkscape:current-layer="svg2" />
  <defs
     id="defs4">
    <marker
       id="ArrowEnd"
       viewBox="0 0 10 10"
       refX="0"
       refY="5"
       markerUnits="strokeWidth"
       markerWidth="4"
       markerHeight="3"
       orient="auto">
      <path
         d="M 0,0 L 10,5 L 0,10 L 0,0 z "
         id="path7" />
    </marker>
    <marker
       id="ArrowStart"
       viewBox="0 0 10 10"
       refX="10"
       refY="5"
       markerUnits="strokeWidth"
       markerWidth="4"
       markerHeight="3"
       orient="auto">
      <path
         d="M 10,0 L 0,5 L 10,10 L 10,0 z "
         id="path10" />
    </marker>
  </defs>
  <g
     id="g12">
    <path
       style="fill:none;stroke:black;stroke-width:0.79701102"
       d="M 97.016,71.75 L 159.375,71.75"
       id="path14" />
    <path
       style="fill:black;stroke:none"
       d="M 116.606,68.898 C 116.606,68.871 116.606,68.851 116.442,68.679 C 115.223,67.421 114.91,65.531 114.91,64 C 114.91,62.261 115.278,60.523 116.481,59.273 C 116.606,59.156 116.606,59.136 116.606,59.105 C 116.606,59.039 116.567,59.007 116.508,59.007 C 116.41,59.007 115.52,59.687 114.938,60.957 C 114.434,62.054 114.317,63.164 114.317,64.003 C 114.317,64.781 114.422,65.992 114.969,67.121 C 115.563,68.347 116.414,69 116.512,69 C 116.57,69 116.61,68.972 116.61,68.902 L 116.606,68.898 z "
       id="path16" />
    <path
       style="fill:black;stroke:none"
       d="M 120.106,60.16 C 120.106,59.925 120.106,59.902 119.883,59.902 C 119.278,60.5 118.41,60.5 118.098,60.5 L 118.098,60.796 C 118.297,60.796 118.887,60.796 119.41,60.55 L 119.41,65.718 C 119.41,66.074 119.383,66.195 118.481,66.195 L 118.16,66.195 L 118.16,66.492 C 118.508,66.464 119.375,66.464 119.774,66.464 C 120.168,66.464 121.035,66.464 121.387,66.492 L 121.387,66.195 L 121.063,66.195 C 120.145,66.195 120.117,66.089 120.117,65.722 L 120.106,60.16 z "
       id="path18" />
    <path
       style="fill:black;stroke:none"
       d="M 130.977,64.199 C 131.113,64.199 131.305,64.199 131.305,64 C 131.305,63.8 131.117,63.8 130.977,63.8 L 125.539,63.8 C 125.403,63.8 125.211,63.8 125.211,64 C 125.211,64.199 125.399,64.199 125.539,64.199 L 130.977,64.199 z "
       id="path20" />
    <path
       style="fill:black;stroke:none"
       d="M 138.809,62.203 C 138.809,62.164 138.781,62.105 138.711,62.105 C 138.606,62.105 138.203,62.503 138.035,62.796 C 137.817,62.265 137.43,62.105 137.11,62.105 C 135.938,62.105 134.711,63.574 134.711,65.015 C 134.711,65.988 135.297,66.601 136.024,66.601 C 136.449,66.601 136.84,66.367 137.196,66.015 C 137.11,66.359 136.778,67.687 136.75,67.777 C 136.672,68.05 136.594,68.089 136.035,68.101 C 135.906,68.101 135.809,68.101 135.809,68.293 C 135.809,68.3 135.809,68.398 135.938,68.398 C 136.254,68.398 136.602,68.371 136.93,68.371 C 137.266,68.371 137.625,68.398 137.953,68.398 C 138,68.398 138.129,68.398 138.129,68.207 C 138.129,68.101 138.031,68.101 137.871,68.101 C 137.395,68.101 137.395,68.035 137.395,67.945 C 137.395,67.878 137.414,67.816 137.434,67.726 L 138.809,62.203 z M 136.043,66.398 C 135.446,66.398 135.406,65.628 135.406,65.457 C 135.406,64.976 135.696,63.886 135.863,63.464 C 136.172,62.726 136.692,62.304 137.102,62.304 C 137.75,62.304 137.887,63.113 137.887,63.183 C 137.887,63.242 137.34,65.437 137.309,65.476 C 137.16,65.753 136.602,66.398 136.043,66.398 z "
       id="path22" />
    <path
       style="fill:black;stroke:none"
       d="M 142.008,64 C 142.008,63.222 141.899,62.011 141.348,60.882 C 140.746,59.656 139.883,59.003 139.781,59.003 C 139.723,59.003 139.684,59.043 139.684,59.101 C 139.684,59.128 139.684,59.148 139.871,59.328 C 140.844,60.316 141.414,61.906 141.414,63.996 C 141.414,65.703 141.047,67.464 139.813,68.722 C 139.684,68.839 139.684,68.859 139.684,68.89 C 139.684,68.949 139.723,68.988 139.781,68.988 C 139.879,68.988 140.785,68.308 141.379,67.039 C 141.891,65.941 142.012,64.832 142.012,63.992 L 142.008,64 z "
       id="path24" />
    <path
       style="fill:none;stroke:black;stroke-width:0.79701102"
       d="M 97.016,71.75 L 34.656,71.75"
       id="path26" />
    <path
       style="fill:black;stroke:none"
       d="M 67.91,62.8 C 67.91,62.761 67.883,62.703 67.813,62.703 C 67.707,62.703 67.305,63.101 67.137,63.394 C 66.918,62.863 66.531,62.703 66.211,62.703 C 65.039,62.703 63.813,64.171 63.813,65.613 C 63.813,66.586 64.399,67.199 65.125,67.199 C 65.551,67.199 65.942,66.964 66.297,66.613 C 66.211,66.957 65.879,68.285 65.852,68.375 C 65.774,68.648 65.696,68.687 65.137,68.699 C 65.008,68.699 64.91,68.699 64.91,68.89 C 64.91,68.898 64.91,68.996 65.039,68.996 C 65.356,68.996 65.703,68.968 66.031,68.968 C 66.367,68.968 66.727,68.996 67.055,68.996 C 67.102,68.996 67.231,68.996 67.231,68.804 C 67.231,68.699 67.133,68.699 66.973,68.699 C 66.496,68.699 66.496,68.632 66.496,68.543 C 66.496,68.476 66.516,68.414 66.535,68.324 L 67.91,62.8 z M 65.145,67 C 64.547,67 64.508,66.23 64.508,66.058 C 64.508,65.578 64.797,64.488 64.965,64.066 C 65.274,63.328 65.793,62.906 66.203,62.906 C 66.852,62.906 66.988,63.714 66.988,63.785 C 66.988,63.843 66.442,66.039 66.41,66.078 C 66.262,66.355 65.703,67 65.145,67 z "
       id="path28" />
    <path
       style="fill:white;stroke:none"
       d="M 96.031,71.742 L 96.031,70.75 L 98.02,70.75 L 98.02,72.738 L 96.031,72.738"
       id="path30" />
    <path
       style="fill:none;stroke:black;stroke-width:0.39850599"
       d="M 98.242,71.742 C 98.242,71.07 97.699,70.527 97.028,70.527 C 96.356,70.527 95.813,71.07 95.813,71.742 C 95.813,72.414 96.356,72.957 97.028,72.957 C 97.699,72.957 98.242,72.414 98.242,71.742 z "
       id="path32" />
    <path
       style="fill:black;stroke:none"
       d="M 100.039,62.339 C 100.137,61.945 100.317,61.636 101.113,61.601 C 101.16,61.601 101.281,61.593 101.281,61.41 C 101.281,61.402 101.281,61.304 101.153,61.304 C 100.824,61.304 100.477,61.332 100.149,61.332 C 99.813,61.332 99.465,61.304 99.133,61.304 C 99.074,61.304 98.957,61.304 98.957,61.496 C 98.957,61.601 99.055,61.601 99.133,61.601 C 99.699,61.609 99.809,61.82 99.809,62.039 C 99.809,62.066 99.789,62.214 99.781,62.246 L 98.668,66.679 L 96.469,61.488 C 96.391,61.312 96.383,61.3 96.153,61.3 L 94.82,61.3 C 94.621,61.3 94.535,61.3 94.535,61.492 C 94.535,61.597 94.621,61.597 94.813,61.597 C 94.86,61.597 95.488,61.597 95.488,61.687 L 94.156,67.046 C 94.059,67.445 93.891,67.765 93.082,67.793 C 93.024,67.793 92.914,67.8 92.914,67.984 C 92.914,68.05 92.961,68.089 93.043,68.089 C 93.36,68.089 93.711,68.062 94.035,68.062 C 94.371,68.062 94.731,68.089 95.059,68.089 C 95.106,68.089 95.235,68.089 95.235,67.898 C 95.235,67.804 95.145,67.793 95.039,67.793 C 94.465,67.773 94.383,67.554 94.383,67.355 C 94.383,67.289 94.391,67.238 94.422,67.128 L 95.735,61.863 C 95.774,61.921 95.774,61.941 95.82,62.039 L 98.301,67.906 C 98.367,68.074 98.399,68.093 98.488,68.093 C 98.594,68.093 98.594,68.066 98.645,67.886 L 100.039,62.339 z "
       id="path34" />
    <path
       style="fill:none;stroke:black;stroke-width:0.79701102"
       d="M 34.653,71.75 L 34.653,100.093"
       id="path36" />
    <path
       style="fill:black;stroke:none"
       d="M 25.399,88.531 C 25.301,88.918 25.281,89 24.492,89 C 24.324,89 24.227,89 24.227,89.191 C 24.227,89.296 24.317,89.296 24.492,89.296 L 28.051,89.296 C 29.625,89.296 30.801,88.125 30.801,87.148 C 30.801,86.433 30.223,85.855 29.254,85.746 C 30.289,85.558 31.332,84.82 31.332,83.875 C 31.332,83.14 30.676,82.503 29.481,82.503 L 26.137,82.503 C 25.949,82.503 25.852,82.503 25.852,82.695 C 25.852,82.8 25.942,82.8 26.129,82.8 C 26.149,82.8 26.336,82.8 26.508,82.82 C 26.684,82.839 26.774,82.847 26.774,82.976 C 26.774,83.015 26.766,83.043 26.735,83.164 L 25.399,88.531 z M 26.903,85.699 L 27.52,83.187 C 27.61,82.836 27.629,82.804 28.055,82.804 L 29.336,82.804 C 30.211,82.804 30.422,83.402 30.422,83.847 C 30.422,84.738 29.567,85.703 28.352,85.703 L 26.903,85.699 z M 26.457,89 C 26.317,89 26.297,89 26.238,89 C 26.141,88.992 26.11,88.98 26.11,88.902 C 26.11,88.875 26.11,88.855 26.156,88.675 L 26.848,85.906 L 28.746,85.906 C 29.711,85.906 29.899,86.636 29.899,87.062 C 29.899,88.039 29.004,89 27.82,89 L 26.457,89 z "
       id="path38" />
    <path
       style="fill:none;stroke:black;stroke-width:0.79701102"
       d="M 34.653,71.75 L 34.653,43.406"
       id="path40" />
    <path
       style="fill:black;stroke:none"
       d="M 26.188,59.765 C 25.793,60.429 25.403,60.566 24.965,60.597 C 24.848,60.605 24.758,60.605 24.758,60.789 C 24.758,60.843 24.805,60.894 24.887,60.894 C 25.153,60.894 25.461,60.867 25.742,60.867 C 26.07,60.867 26.418,60.894 26.735,60.894 C 26.793,60.894 26.922,60.894 26.922,60.71 C 26.922,60.605 26.832,60.597 26.766,60.597 C 26.539,60.578 26.301,60.5 26.301,60.25 C 26.301,60.132 26.36,60.023 26.438,59.882 C 26.504,59.765 26.516,59.765 27.192,58.605 L 29.692,58.605 C 29.711,58.812 29.848,60.171 29.848,60.273 C 29.848,60.57 29.332,60.601 29.133,60.601 C 28.996,60.601 28.895,60.601 28.895,60.793 C 28.895,60.898 29.012,60.898 29.031,60.898 C 29.438,60.898 29.867,60.871 30.274,60.871 C 30.52,60.871 31.149,60.898 31.399,60.898 C 31.457,60.898 31.574,60.898 31.574,60.707 C 31.574,60.601 31.477,60.601 31.348,60.601 C 30.731,60.601 30.731,60.535 30.703,60.246 L 30.098,54.043 C 30.078,53.847 30.078,53.804 29.91,53.804 C 29.754,53.804 29.715,53.871 29.653,53.972 L 26.188,59.765 z M 27.387,58.3 L 29.348,55.003 L 29.664,58.3 L 27.387,58.3 z "
       id="path42" />
    <path
       style="fill:white;stroke:none"
       d="M 33.629,71.742 L 33.629,70.75 L 35.617,70.75 L 35.617,72.738 L 33.629,72.738"
       id="path44" />
    <path
       style="fill:black;stroke:none"
       d="M 36.043,71.742 C 36.043,70.96 35.41,70.328 34.629,70.328 C 33.848,70.328 33.215,70.96 33.215,71.742 C 33.215,72.523 33.848,73.156 34.629,73.156 C 35.41,73.156 36.043,72.523 36.043,71.742"
       id="path46" />
    <path
       style="fill:black;stroke:none"
       d="M 28.906,68.66 C 28.906,68.425 28.906,68.402 28.684,68.402 C 28.078,69 27.211,69 26.899,69 L 26.899,69.296 C 27.098,69.296 27.688,69.296 28.211,69.05 L 28.211,74.218 C 28.211,74.574 28.184,74.695 27.281,74.695 L 26.961,74.695 L 26.961,74.992 C 27.309,74.964 28.176,74.964 28.574,74.964 C 28.969,74.964 29.836,74.964 30.188,74.992 L 30.188,74.695 L 29.863,74.695 C 28.946,74.695 28.918,74.589 28.918,74.222 L 28.906,68.66 z "
       id="path48" />
    <path
       style="fill:none;stroke:black;stroke-width:0.79701102"
       d="M 159.375,71.75 L 159.375,100.093"
       id="path50" />
    <path
       style="fill:black;stroke:none"
       d="M 163.801,88.531 C 163.703,88.918 163.684,89 162.895,89 C 162.727,89 162.629,89 162.629,89.191 C 162.629,89.296 162.719,89.296 162.895,89.296 L 166.453,89.296 C 168.028,89.296 169.203,88.125 169.203,87.148 C 169.203,86.433 168.625,85.855 167.656,85.746 C 168.692,85.558 169.735,84.82 169.735,83.875 C 169.735,83.14 169.078,82.503 167.883,82.503 L 164.539,82.503 C 164.352,82.503 164.254,82.503 164.254,82.695 C 164.254,82.8 164.344,82.8 164.531,82.8 C 164.551,82.8 164.738,82.8 164.91,82.82 C 165.086,82.839 165.176,82.847 165.176,82.976 C 165.176,83.015 165.168,83.043 165.137,83.164 L 163.801,88.531 z M 165.305,85.699 L 165.922,83.187 C 166.012,82.836 166.031,82.804 166.457,82.804 L 167.738,82.804 C 168.613,82.804 168.824,83.402 168.824,83.847 C 168.824,84.738 167.969,85.703 166.754,85.703 L 165.305,85.699 z M 164.86,89 C 164.719,89 164.699,89 164.641,89 C 164.543,88.992 164.512,88.98 164.512,88.902 C 164.512,88.875 164.512,88.855 164.559,88.675 L 165.25,85.906 L 167.149,85.906 C 168.113,85.906 168.301,86.636 168.301,87.062 C 168.301,88.039 167.406,89 166.223,89 L 164.86,89 z "
       id="path52" />
    <path
       style="fill:none;stroke:black;stroke-width:0.79701102"
       d="M 159.375,71.75 L 159.375,43.406"
       id="path54" />
    <path
       style="fill:black;stroke:none"
       d="M 163.988,59.765 C 163.594,60.429 163.203,60.566 162.766,60.597 C 162.649,60.605 162.559,60.605 162.559,60.789 C 162.559,60.843 162.606,60.894 162.688,60.894 C 162.953,60.894 163.262,60.867 163.543,60.867 C 163.871,60.867 164.219,60.894 164.535,60.894 C 164.594,60.894 164.723,60.894 164.723,60.71 C 164.723,60.605 164.633,60.597 164.567,60.597 C 164.34,60.578 164.102,60.5 164.102,60.25 C 164.102,60.132 164.16,60.023 164.238,59.882 C 164.305,59.765 164.317,59.765 164.992,58.605 L 167.492,58.605 C 167.512,58.812 167.649,60.171 167.649,60.273 C 167.649,60.57 167.133,60.601 166.934,60.601 C 166.797,60.601 166.696,60.601 166.696,60.793 C 166.696,60.898 166.813,60.898 166.832,60.898 C 167.238,60.898 167.668,60.871 168.074,60.871 C 168.32,60.871 168.949,60.898 169.199,60.898 C 169.258,60.898 169.375,60.898 169.375,60.707 C 169.375,60.601 169.278,60.601 169.149,60.601 C 168.531,60.601 168.531,60.535 168.504,60.246 L 167.899,54.043 C 167.879,53.847 167.879,53.804 167.711,53.804 C 167.555,53.804 167.516,53.871 167.453,53.972 L 163.988,59.765 z M 165.184,58.3 L 167.145,55.003 L 167.461,58.3 L 165.184,58.3 z "
       id="path56" />
    <path
       style="fill:white;stroke:none"
       d="M 158.309,71.742 L 158.309,70.75 L 160.297,70.75 L 160.297,72.738 L 158.309,72.738"
       id="path58" />
    <path
       style="fill:black;stroke:none"
       d="M 160.723,71.742 C 160.723,70.96 160.09,70.328 159.309,70.328 C 158.528,70.328 157.895,70.96 157.895,71.742 C 157.895,72.523 158.528,73.156 159.309,73.156 C 160.09,73.156 160.723,72.523 160.723,71.742"
       id="path60" />
    <path
       style="fill:black;stroke:none"
       d="M 165.906,68.66 C 165.906,68.425 165.906,68.402 165.684,68.402 C 165.078,69 164.211,69 163.899,69 L 163.899,69.296 C 164.098,69.296 164.688,69.296 165.211,69.05 L 165.211,74.218 C 165.211,74.574 165.184,74.695 164.281,74.695 L 163.961,74.695 L 163.961,74.992 C 164.309,74.964 165.176,74.964 165.574,74.964 C 165.969,74.964 166.836,74.964 167.188,74.992 L 167.188,74.695 L 166.863,74.695 C 165.946,74.695 165.918,74.589 165.918,74.222 L 165.906,68.66 z "
       id="path62" />
    <path
       style="fill:black;stroke:none"
       d="M 40.973,43.421 C 40.973,43.031 40.656,42.714 40.266,42.714 C 39.875,42.714 39.559,43.031 39.559,43.421 C 39.559,43.812 39.875,44.128 40.266,44.128 C 40.656,44.128 40.973,43.812 40.973,43.421"
       id="path64" />
    <path
       style="fill:black;stroke:none"
       d="M 46.613,43.421 C 46.613,43.031 46.297,42.714 45.906,42.714 C 45.516,42.714 45.199,43.031 45.199,43.421 C 45.199,43.812 45.516,44.128 45.906,44.128 C 46.297,44.128 46.613,43.812 46.613,43.421"
       id="path66" />
    <path
       style="fill:black;stroke:none"
       d="M 52.375,43.421 C 52.375,43.031 52.059,42.714 51.668,42.714 C 51.278,42.714 50.961,43.031 50.961,43.421 C 50.961,43.812 51.278,44.128 51.668,44.128 C 52.059,44.128 52.375,43.812 52.375,43.421"
       id="path68" />
    <path
       style="fill:black;stroke:none"
       d="M 58.016,43.421 C 58.016,43.031 57.699,42.714 57.309,42.714 C 56.918,42.714 56.602,43.031 56.602,43.421 C 56.602,43.812 56.918,44.128 57.309,44.128 C 57.699,44.128 58.016,43.812 58.016,43.421"
       id="path70" />
    <path
       style="fill:black;stroke:none"
       d="M 63.653,43.421 C 63.653,43.031 63.336,42.714 62.946,42.714 C 62.555,42.714 62.238,43.031 62.238,43.421 C 62.238,43.812 62.555,44.128 62.946,44.128 C 63.336,44.128 63.653,43.812 63.653,43.421"
       id="path72" />
    <path
       style="fill:black;stroke:none"
       d="M 69.293,43.421 C 69.293,43.031 68.977,42.714 68.586,42.714 C 68.196,42.714 67.879,43.031 67.879,43.421 C 67.879,43.812 68.196,44.128 68.586,44.128 C 68.977,44.128 69.293,43.812 69.293,43.421"
       id="path74" />
    <path
       style="fill:black;stroke:none"
       d="M 75.055,43.421 C 75.055,43.031 74.738,42.714 74.348,42.714 C 73.957,42.714 73.641,43.031 73.641,43.421 C 73.641,43.812 73.957,44.128 74.348,44.128 C 74.738,44.128 75.055,43.812 75.055,43.421"
       id="path76" />
    <path
       style="fill:black;stroke:none"
       d="M 80.692,43.421 C 80.692,43.031 80.375,42.714 79.985,42.714 C 79.594,42.714 79.278,43.031 79.278,43.421 C 79.278,43.812 79.594,44.128 79.985,44.128 C 80.375,44.128 80.692,43.812 80.692,43.421"
       id="path78" />
    <path
       style="fill:black;stroke:none"
       d="M 86.332,43.421 C 86.332,43.031 86.016,42.714 85.625,42.714 C 85.235,42.714 84.918,43.031 84.918,43.421 C 84.918,43.812 85.235,44.128 85.625,44.128 C 86.016,44.128 86.332,43.812 86.332,43.421"
       id="path80" />
    <path
       style="fill:black;stroke:none"
       d="M 91.973,43.421 C 91.973,43.031 91.656,42.714 91.266,42.714 C 90.875,42.714 90.559,43.031 90.559,43.421 C 90.559,43.812 90.875,44.128 91.266,44.128 C 91.656,44.128 91.973,43.812 91.973,43.421"
       id="path82" />
    <path
       style="fill:black;stroke:none"
       d="M 97.735,43.421 C 97.735,43.031 97.418,42.714 97.028,42.714 C 96.637,42.714 96.32,43.031 96.32,43.421 C 96.32,43.812 96.637,44.128 97.028,44.128 C 97.418,44.128 97.735,43.812 97.735,43.421"
       id="path84" />
    <path
       style="fill:black;stroke:none"
       d="M 103.371,43.421 C 103.371,43.031 103.055,42.714 102.664,42.714 C 102.274,42.714 101.957,43.031 101.957,43.421 C 101.957,43.812 102.274,44.128 102.664,44.128 C 103.055,44.128 103.371,43.812 103.371,43.421"
       id="path86" />
    <path
       style="fill:black;stroke:none"
       d="M 109.012,43.421 C 109.012,43.031 108.696,42.714 108.305,42.714 C 107.914,42.714 107.598,43.031 107.598,43.421 C 107.598,43.812 107.914,44.128 108.305,44.128 C 108.696,44.128 109.012,43.812 109.012,43.421"
       id="path88" />
    <path
       style="fill:black;stroke:none"
       d="M 114.653,43.421 C 114.653,43.031 114.336,42.714 113.946,42.714 C 113.555,42.714 113.238,43.031 113.238,43.421 C 113.238,43.812 113.555,44.128 113.946,44.128 C 114.336,44.128 114.653,43.812 114.653,43.421"
       id="path90" />
    <path
       style="fill:black;stroke:none"
       d="M 120.41,43.421 C 120.41,43.031 120.094,42.714 119.703,42.714 C 119.313,42.714 118.996,43.031 118.996,43.421 C 118.996,43.812 119.313,44.128 119.703,44.128 C 120.094,44.128 120.41,43.812 120.41,43.421"
       id="path92" />
    <path
       style="fill:black;stroke:none"
       d="M 126.051,43.421 C 126.051,43.031 125.735,42.714 125.344,42.714 C 124.953,42.714 124.637,43.031 124.637,43.421 C 124.637,43.812 124.953,44.128 125.344,44.128 C 125.735,44.128 126.051,43.812 126.051,43.421"
       id="path94" />
    <path
       style="fill:black;stroke:none"
       d="M 131.692,43.421 C 131.692,43.031 131.375,42.714 130.985,42.714 C 130.594,42.714 130.278,43.031 130.278,43.421 C 130.278,43.812 130.594,44.128 130.985,44.128 C 131.375,44.128 131.692,43.812 131.692,43.421"
       id="path96" />
    <path
       style="fill:black;stroke:none"
       d="M 137.332,43.421 C 137.332,43.031 137.016,42.714 136.625,42.714 C 136.235,42.714 135.918,43.031 135.918,43.421 C 135.918,43.812 136.235,44.128 136.625,44.128 C 137.016,44.128 137.332,43.812 137.332,43.421"
       id="path98" />
    <path
       style="fill:black;stroke:none"
       d="M 143.09,43.421 C 143.09,43.031 142.774,42.714 142.383,42.714 C 141.992,42.714 141.676,43.031 141.676,43.421 C 141.676,43.812 141.992,44.128 142.383,44.128 C 142.774,44.128 143.09,43.812 143.09,43.421"
       id="path100" />
    <path
       style="fill:black;stroke:none"
       d="M 148.731,43.421 C 148.731,43.031 148.414,42.714 148.024,42.714 C 147.633,42.714 147.317,43.031 147.317,43.421 C 147.317,43.812 147.633,44.128 148.024,44.128 C 148.414,44.128 148.731,43.812 148.731,43.421"
       id="path102" />
    <path
       style="fill:black;stroke:none"
       d="M 154.371,43.421 C 154.371,43.031 154.055,42.714 153.664,42.714 C 153.274,42.714 152.957,43.031 152.957,43.421 C 152.957,43.812 153.274,44.128 153.664,44.128 C 154.055,44.128 154.371,43.812 154.371,43.421"
       id="path104" />
    <path
       style="fill:black;stroke:none"
       d="M 99.008,37.964 L 98.758,37.964 C 98.711,38.25 98.641,38.675 98.539,38.82 C 98.473,38.894 97.809,38.894 97.586,38.894 L 95.781,38.894 L 96.844,37.882 C 98.41,36.527 99.012,35.992 99.012,35.007 C 99.012,33.886 98.11,33.097 96.887,33.097 C 95.758,33.097 95.016,33.988 95.016,34.851 C 95.016,35.394 95.488,35.394 95.52,35.394 C 95.68,35.394 96.012,35.281 96.012,34.89 C 96.012,34.644 95.848,34.398 95.52,34.398 C 95.449,34.398 95.43,34.398 95.403,34.398 C 95.633,33.761 96.176,33.398 96.762,33.398 C 97.68,33.398 98.113,34.199 98.113,35.015 C 98.113,35.808 97.613,36.589 97.059,37.207 L 95.129,39.328 C 95.02,39.433 95.02,39.457 95.02,39.691 L 98.738,39.691 L 99.008,37.964 z "
       id="path106" />
    <path
       style="fill:black;stroke:none"
       d="M 40.973,100.058 C 40.973,99.668 40.656,99.351 40.266,99.351 C 39.875,99.351 39.559,99.668 39.559,100.058 C 39.559,100.449 39.875,100.765 40.266,100.765 C 40.656,100.765 40.973,100.449 40.973,100.058"
       id="path108" />
    <path
       style="fill:black;stroke:none"
       d="M 46.613,100.058 C 46.613,99.668 46.297,99.351 45.906,99.351 C 45.516,99.351 45.199,99.668 45.199,100.058 C 45.199,100.449 45.516,100.765 45.906,100.765 C 46.297,100.765 46.613,100.449 46.613,100.058"
       id="path110" />
    <path
       style="fill:black;stroke:none"
       d="M 52.375,100.058 C 52.375,99.668 52.059,99.351 51.668,99.351 C 51.278,99.351 50.961,99.668 50.961,100.058 C 50.961,100.449 51.278,100.765 51.668,100.765 C 52.059,100.765 52.375,100.449 52.375,100.058"
       id="path112" />
    <path
       style="fill:black;stroke:none"
       d="M 58.016,100.058 C 58.016,99.668 57.699,99.351 57.309,99.351 C 56.918,99.351 56.602,99.668 56.602,100.058 C 56.602,100.449 56.918,100.765 57.309,100.765 C 57.699,100.765 58.016,100.449 58.016,100.058"
       id="path114" />
    <path
       style="fill:black;stroke:none"
       d="M 63.653,100.058 C 63.653,99.668 63.336,99.351 62.946,99.351 C 62.555,99.351 62.238,99.668 62.238,100.058 C 62.238,100.449 62.555,100.765 62.946,100.765 C 63.336,100.765 63.653,100.449 63.653,100.058"
       id="path116" />
    <path
       style="fill:black;stroke:none"
       d="M 69.293,100.058 C 69.293,99.668 68.977,99.351 68.586,99.351 C 68.196,99.351 67.879,99.668 67.879,100.058 C 67.879,100.449 68.196,100.765 68.586,100.765 C 68.977,100.765 69.293,100.449 69.293,100.058"
       id="path118" />
    <path
       style="fill:black;stroke:none"
       d="M 75.055,100.058 C 75.055,99.668 74.738,99.351 74.348,99.351 C 73.957,99.351 73.641,99.668 73.641,100.058 C 73.641,100.449 73.957,100.765 74.348,100.765 C 74.738,100.765 75.055,100.449 75.055,100.058"
       id="path120" />
    <path
       style="fill:black;stroke:none"
       d="M 80.692,100.058 C 80.692,99.668 80.375,99.351 79.985,99.351 C 79.594,99.351 79.278,99.668 79.278,100.058 C 79.278,100.449 79.594,100.765 79.985,100.765 C 80.375,100.765 80.692,100.449 80.692,100.058"
       id="path122" />
    <path
       style="fill:black;stroke:none"
       d="M 86.332,100.058 C 86.332,99.668 86.016,99.351 85.625,99.351 C 85.235,99.351 84.918,99.668 84.918,100.058 C 84.918,100.449 85.235,100.765 85.625,100.765 C 86.016,100.765 86.332,100.449 86.332,100.058"
       id="path124" />
    <path
       style="fill:black;stroke:none"
       d="M 91.973,100.058 C 91.973,99.668 91.656,99.351 91.266,99.351 C 90.875,99.351 90.559,99.668 90.559,100.058 C 90.559,100.449 90.875,100.765 91.266,100.765 C 91.656,100.765 91.973,100.449 91.973,100.058"
       id="path126" />
    <path
       style="fill:black;stroke:none"
       d="M 97.735,100.058 C 97.735,99.668 97.418,99.351 97.028,99.351 C 96.637,99.351 96.32,99.668 96.32,100.058 C 96.32,100.449 96.637,100.765 97.028,100.765 C 97.418,100.765 97.735,100.449 97.735,100.058"
       id="path128" />
    <path
       style="fill:black;stroke:none"
       d="M 103.371,100.058 C 103.371,99.668 103.055,99.351 102.664,99.351 C 102.274,99.351 101.957,99.668 101.957,100.058 C 101.957,100.449 102.274,100.765 102.664,100.765 C 103.055,100.765 103.371,100.449 103.371,100.058"
       id="path130" />
    <path
       style="fill:black;stroke:none"
       d="M 109.012,100.058 C 109.012,99.668 108.696,99.351 108.305,99.351 C 107.914,99.351 107.598,99.668 107.598,100.058 C 107.598,100.449 107.914,100.765 108.305,100.765 C 108.696,100.765 109.012,100.449 109.012,100.058"
       id="path132" />
    <path
       style="fill:black;stroke:none"
       d="M 114.653,100.058 C 114.653,99.668 114.336,99.351 113.946,99.351 C 113.555,99.351 113.238,99.668 113.238,100.058 C 113.238,100.449 113.555,100.765 113.946,100.765 C 114.336,100.765 114.653,100.449 114.653,100.058"
       id="path134" />
    <path
       style="fill:black;stroke:none"
       d="M 120.41,100.058 C 120.41,99.668 120.094,99.351 119.703,99.351 C 119.313,99.351 118.996,99.668 118.996,100.058 C 118.996,100.449 119.313,100.765 119.703,100.765 C 120.094,100.765 120.41,100.449 120.41,100.058"
       id="path136" />
    <path
       style="fill:black;stroke:none"
       d="M 126.051,100.058 C 126.051,99.668 125.735,99.351 125.344,99.351 C 124.953,99.351 124.637,99.668 124.637,100.058 C 124.637,100.449 124.953,100.765 125.344,100.765 C 125.735,100.765 126.051,100.449 126.051,100.058"
       id="path138" />
    <path
       style="fill:black;stroke:none"
       d="M 131.692,100.058 C 131.692,99.668 131.375,99.351 130.985,99.351 C 130.594,99.351 130.278,99.668 130.278,100.058 C 130.278,100.449 130.594,100.765 130.985,100.765 C 131.375,100.765 131.692,100.449 131.692,100.058"
       id="path140" />
    <path
       style="fill:black;stroke:none"
       d="M 137.332,100.058 C 137.332,99.668 137.016,99.351 136.625,99.351 C 136.235,99.351 135.918,99.668 135.918,100.058 C 135.918,100.449 136.235,100.765 136.625,100.765 C 137.016,100.765 137.332,100.449 137.332,100.058"
       id="path142" />
    <path
       style="fill:black;stroke:none"
       d="M 143.09,100.058 C 143.09,99.668 142.774,99.351 142.383,99.351 C 141.992,99.351 141.676,99.668 141.676,100.058 C 141.676,100.449 141.992,100.765 142.383,100.765 C 142.774,100.765 143.09,100.449 143.09,100.058"
       id="path144" />
    <path
       style="fill:black;stroke:none"
       d="M 148.731,100.058 C 148.731,99.668 148.414,99.351 148.024,99.351 C 147.633,99.351 147.317,99.668 147.317,100.058 C 147.317,100.449 147.633,100.765 148.024,100.765 C 148.414,100.765 148.731,100.449 148.731,100.058"
       id="path146" />
    <path
       style="fill:black;stroke:none"
       d="M 154.371,100.058 C 154.371,99.668 154.055,99.351 153.664,99.351 C 153.274,99.351 152.957,99.668 152.957,100.058 C 152.957,100.449 153.274,100.765 153.664,100.765 C 154.055,100.765 154.371,100.449 154.371,100.058"
       id="path148" />
    <path
       style="fill:black;stroke:none"
       d="M 99.008,94.765 L 98.758,94.765 C 98.711,95.05 98.641,95.476 98.539,95.621 C 98.473,95.695 97.809,95.695 97.586,95.695 L 95.781,95.695 L 96.844,94.683 C 98.41,93.328 99.012,92.793 99.012,91.808 C 99.012,90.687 98.11,89.898 96.887,89.898 C 95.758,89.898 95.016,90.789 95.016,91.652 C 95.016,92.195 95.488,92.195 95.52,92.195 C 95.68,92.195 96.012,92.082 96.012,91.691 C 96.012,91.445 95.848,91.199 95.52,91.199 C 95.449,91.199 95.43,91.199 95.403,91.199 C 95.633,90.562 96.176,90.199 96.762,90.199 C 97.68,90.199 98.113,91 98.113,91.816 C 98.113,92.609 97.613,93.39 97.059,94.007 L 95.129,96.128 C 95.02,96.234 95.02,96.257 95.02,96.492 L 98.738,96.492 L 99.008,94.765 z "
       id="path150" />
    <path
       style="fill:none;stroke:black;stroke-width:0.79701102"
       d="M 34.653,43.402 L 62.996,15.058"
       id="path152" />
    <path
       style="fill:black;stroke:none"
       d="M 63.153,27.429 L 63.289,27.293 C 63.586,26.996 63.914,26.656 64.594,26.605 C 64.703,26.597 64.789,26.597 64.789,26.421 C 64.789,26.347 64.742,26.308 64.66,26.308 C 64.403,26.308 64.113,26.336 63.844,26.336 C 63.516,26.336 63.168,26.308 62.852,26.308 C 62.793,26.308 62.664,26.308 62.664,26.492 C 62.664,26.597 62.762,26.605 62.813,26.605 C 62.879,26.605 63.168,26.625 63.168,26.832 C 63.168,27 62.942,27.257 62.903,27.308 L 60.594,29.968 L 59.5,27.007 C 59.442,26.871 59.442,26.851 59.442,26.839 C 59.442,26.601 59.926,26.601 60.028,26.601 C 60.164,26.601 60.266,26.601 60.266,26.41 C 60.266,26.304 60.149,26.304 60.117,26.304 C 59.84,26.304 59.145,26.332 58.863,26.332 C 58.617,26.332 58,26.304 57.75,26.304 C 57.692,26.304 57.563,26.304 57.563,26.496 C 57.563,26.601 57.66,26.601 57.789,26.601 C 58.387,26.601 58.426,26.691 58.516,26.941 L 59.738,30.222 C 59.746,30.25 59.778,30.359 59.778,30.39 C 59.778,30.418 59.383,32.027 59.332,32.207 C 59.203,32.753 59.196,32.785 58.399,32.793 C 58.211,32.793 58.133,32.793 58.133,32.984 C 58.133,33.089 58.25,33.089 58.27,33.089 C 58.547,33.089 59.246,33.062 59.524,33.062 C 59.801,33.062 60.516,33.089 60.797,33.089 C 60.863,33.089 60.985,33.089 60.985,32.898 C 60.985,32.793 60.899,32.793 60.707,32.793 C 60.688,32.793 60.5,32.793 60.328,32.773 C 60.121,32.753 60.063,32.734 60.063,32.617 C 60.063,32.55 60.153,32.199 60.199,31.988 C 60.367,31.332 60.395,31.179 60.547,30.582 C 60.594,30.394 60.606,30.363 60.684,30.273 L 63.153,27.429 z "
       id="path154" />
    <path
       style="fill:black;stroke:none"
       d="M 60.305,3.42102 C 60.305,2.63202 60.258,1.84302 59.906,1.10901 C 59.449,0.164001 58.633,0.00299072 58.211,0.00299072 C 57.613,0.00299072 56.887,0.260986 56.477,1.17902 C 56.16,1.85901 56.11,2.62799 56.11,3.42102 C 56.11,4.16003 56.149,5.04999 56.555,5.79999 C 56.981,6.59698 57.711,6.79602 58.199,6.79602 C 58.735,6.79602 59.496,6.58899 59.934,5.65204 C 60.25,4.97198 60.301,4.203 60.301,3.42102 L 60.305,3.42102 z M 58.199,6.60101 C 57.805,6.60101 57.203,6.35498 57.02,5.40204 C 56.91,4.80798 56.91,3.89398 56.91,3.30798 C 56.91,2.67499 56.91,2.01898 56.988,1.48401 C 57.18,0.304016 57.946,0.213989 58.199,0.213989 C 58.535,0.213989 59.207,0.393982 59.399,1.375 C 59.5,1.92902 59.5,2.68298 59.5,3.30798 C 59.5,4.04999 59.5,4.72601 59.391,5.36304 C 59.238,6.30402 58.66,6.60101 58.199,6.60101 z "
       id="path156" />
    <path
       style="fill:black;stroke:none"
       d="M 62.805,6.60101 C 62.805,5.914 62.563,5.50299 62.18,5.50299 C 61.86,5.50299 61.664,5.76099 61.664,6.04999 C 61.664,6.328 61.86,6.59698 62.188,6.59698 C 62.305,6.59698 62.434,6.55798 62.535,6.46802 C 62.563,6.44904 62.574,6.44104 62.582,6.44104 C 62.59,6.44104 62.602,6.44904 62.602,6.59698 C 62.602,7.32001 62.258,7.90601 61.93,8.22998 C 61.824,8.336 61.824,8.35498 61.824,8.38599 C 61.824,8.453 61.871,8.492 61.922,8.492 C 62.028,8.492 62.805,7.73804 62.805,6.59302 L 62.805,6.60101 z "
       id="path158" />
    <path
       style="fill:black;stroke:none"
       d="M 69.805,3.42102 C 69.805,2.63202 69.758,1.84302 69.406,1.10901 C 68.949,0.164001 68.133,0.00299072 67.711,0.00299072 C 67.113,0.00299072 66.387,0.260986 65.977,1.17902 C 65.66,1.85901 65.61,2.62799 65.61,3.42102 C 65.61,4.16003 65.649,5.04999 66.055,5.79999 C 66.481,6.59698 67.211,6.79602 67.699,6.79602 C 68.235,6.79602 68.996,6.58899 69.434,5.65204 C 69.75,4.97198 69.801,4.203 69.801,3.42102 L 69.805,3.42102 z M 67.699,6.60101 C 67.305,6.60101 66.703,6.35498 66.52,5.40204 C 66.41,4.80798 66.41,3.89398 66.41,3.30798 C 66.41,2.67499 66.41,2.01898 66.488,1.48401 C 66.68,0.304016 67.446,0.213989 67.699,0.213989 C 68.035,0.213989 68.707,0.393982 68.899,1.375 C 69,1.92902 69,2.68298 69,3.30798 C 69,4.04999 69,4.72601 68.891,5.36304 C 68.738,6.30402 68.16,6.60101 67.699,6.60101 z "
       id="path160" />
    <path
       style="fill:none;stroke:black;stroke-width:0.79701102"
       d="M 34.653,43.402 L 6.309,15.058"
       id="path162" />
    <path
       style="fill:black;stroke:none"
       d="M 7.738,29.003 L 6.90301,27.019 C 6.87501,26.941 6.85601,26.902 6.85601,26.89 C 6.85601,26.832 7.02401,26.64 7.44201,26.601 C 7.53901,26.593 7.641,26.582 7.641,26.418 C 7.641,26.304 7.52401,26.304 7.492,26.304 C 7.08601,26.304 6.656,26.332 6.238,26.332 C 5.992,26.332 5.37501,26.304 5.12501,26.304 C 5.06701,26.304 4.949,26.304 4.949,26.496 C 4.949,26.601 5.047,26.601 5.176,26.601 C 5.77401,26.601 5.83201,26.699 5.922,26.921 L 7.098,29.703 L 4.99601,31.968 C 4.938,32.015 4.93,32.027 4.867,32.078 C 4.383,32.605 3.91401,32.765 3.406,32.796 C 3.27801,32.804 3.188,32.804 3.188,32.988 C 3.188,32.996 3.188,33.093 3.31701,33.093 C 3.613,33.093 3.94201,33.066 4.25001,33.066 C 4.617,33.066 5.00401,33.093 5.363,33.093 C 5.422,33.093 5.53901,33.093 5.53901,32.902 C 5.53901,32.808 5.44201,32.796 5.422,32.796 C 5.33601,32.789 5.02801,32.769 5.02801,32.488 C 5.02801,32.332 5.176,32.171 5.29301,32.039 L 6.309,30.96 C 6.60601,30.632 6.99601,30.222 7.20301,29.984 L 8.20701,32.371 C 8.24601,32.48 8.25401,32.488 8.25401,32.507 C 8.25401,32.586 8.06701,32.757 7.68,32.796 C 7.57,32.804 7.48101,32.816 7.48101,32.98 C 7.48101,33.093 7.59,33.093 7.62901,33.093 C 7.906,33.093 8.602,33.066 8.883,33.066 C 9.12901,33.066 9.738,33.093 9.988,33.093 C 10.055,33.093 10.176,33.093 10.176,32.91 C 10.176,32.796 10.078,32.796 10,32.796 C 9.33201,32.789 9.31701,32.757 9.145,32.359 C 8.758,31.433 8.09,29.875 7.863,29.277 C 8.53901,28.582 9.58601,27.394 9.90301,27.113 C 10.188,26.875 10.57,26.636 11.164,26.605 C 11.293,26.597 11.383,26.597 11.383,26.414 C 11.383,26.406 11.383,26.308 11.254,26.308 C 10.957,26.308 10.629,26.336 10.32,26.336 C 9.95301,26.336 9.574,26.308 9.215,26.308 C 9.156,26.308 9.02801,26.308 9.02801,26.5 C 9.02801,26.566 9.074,26.593 9.145,26.605 C 9.23101,26.613 9.53901,26.632 9.53901,26.914 C 9.53901,27.05 9.43,27.179 9.352,27.269 L 7.738,29.003 z "
       id="path164" />
    <path
       style="fill:black;stroke:none"
       d="M 2.008,0.257019 C 2.008,0.0230103 2.008,0 1.785,0 C 1.18,0.596985 0.313004,0.596985 0,0.596985 L 0,0.893982 C 0.199005,0.893982 0.789009,0.893982 1.313,0.64801 L 1.313,5.81604 C 1.313,6.17102 1.285,6.29303 0.383003,6.29303 L 0.0630035,6.29303 L 0.0630035,6.58899 C 0.410004,6.56201 1.27801,6.56201 1.676,6.56201 C 2.07,6.56201 2.938,6.56201 3.28901,6.58899 L 3.28901,6.29303 L 2.965,6.29303 C 2.047,6.29303 2.02,6.18701 2.02,5.82001 L 2.008,0.257019 z "
       id="path166" />
    <path
       style="fill:black;stroke:none"
       d="M 6.10601,6.60101 C 6.10601,5.914 5.863,5.50299 5.48101,5.50299 C 5.16,5.50299 4.965,5.76099 4.965,6.04999 C 4.965,6.328 5.16,6.59698 5.488,6.59698 C 5.60601,6.59698 5.73501,6.55798 5.83601,6.46802 C 5.863,6.44904 5.87501,6.44104 5.883,6.44104 C 5.891,6.44104 5.90301,6.44904 5.90301,6.59698 C 5.90301,7.32001 5.559,7.90601 5.23101,8.22998 C 5.12501,8.336 5.12501,8.35498 5.12501,8.38599 C 5.12501,8.453 5.172,8.492 5.223,8.492 C 5.32801,8.492 6.10601,7.73804 6.10601,6.59302 L 6.10601,6.60101 z "
       id="path168" />
    <path
       style="fill:black;stroke:none"
       d="M 11.508,0.257019 C 11.508,0.0230103 11.508,0 11.285,0 C 10.68,0.596985 9.813,0.596985 9.50001,0.596985 L 9.50001,0.893982 C 9.699,0.893982 10.289,0.893982 10.813,0.64801 L 10.813,5.81604 C 10.813,6.17102 10.785,6.29303 9.883,6.29303 L 9.563,6.29303 L 9.563,6.58899 C 9.91,6.56201 10.778,6.56201 11.176,6.56201 C 11.57,6.56201 12.438,6.56201 12.789,6.58899 L 12.789,6.29303 L 12.465,6.29303 C 11.547,6.29303 11.52,6.18701 11.52,5.82001 L 11.508,0.257019 z "
       id="path170" />
    <path
       style="fill:white;stroke:none"
       d="M 33.629,43.421 L 33.629,42.429 L 35.617,42.429 L 35.617,44.418 L 33.629,44.418"
       id="path172" />
    <path
       style="fill:black;stroke:none"
       d="M 36.043,43.421 C 36.043,42.64 35.41,42.007 34.629,42.007 C 33.848,42.007 33.215,42.64 33.215,43.421 C 33.215,44.203 33.848,44.836 34.629,44.836 C 35.41,44.836 36.043,44.203 36.043,43.421"
       id="path174" />
    <path
       style="fill:none;stroke:black;stroke-width:0.79701102"
       d="M 159.375,43.402 L 187.719,15.058"
       id="path176" />
    <path
       style="fill:black;stroke:none"
       d="M 187.953,27.429 L 188.09,27.293 C 188.387,26.996 188.715,26.656 189.395,26.605 C 189.504,26.597 189.59,26.597 189.59,26.421 C 189.59,26.347 189.543,26.308 189.461,26.308 C 189.203,26.308 188.914,26.336 188.645,26.336 C 188.317,26.336 187.969,26.308 187.653,26.308 C 187.594,26.308 187.465,26.308 187.465,26.492 C 187.465,26.597 187.563,26.605 187.613,26.605 C 187.68,26.605 187.969,26.625 187.969,26.832 C 187.969,27 187.742,27.257 187.703,27.308 L 185.395,29.968 L 184.301,27.007 C 184.242,26.871 184.242,26.851 184.242,26.839 C 184.242,26.601 184.727,26.601 184.828,26.601 C 184.965,26.601 185.067,26.601 185.067,26.41 C 185.067,26.304 184.949,26.304 184.918,26.304 C 184.641,26.304 183.946,26.332 183.664,26.332 C 183.418,26.332 182.801,26.304 182.551,26.304 C 182.492,26.304 182.363,26.304 182.363,26.496 C 182.363,26.601 182.461,26.601 182.59,26.601 C 183.188,26.601 183.227,26.691 183.317,26.941 L 184.539,30.222 C 184.547,30.25 184.578,30.359 184.578,30.39 C 184.578,30.418 184.184,32.027 184.133,32.207 C 184.004,32.753 183.996,32.785 183.199,32.793 C 183.012,32.793 182.934,32.793 182.934,32.984 C 182.934,33.089 183.051,33.089 183.07,33.089 C 183.348,33.089 184.047,33.062 184.324,33.062 C 184.602,33.062 185.317,33.089 185.598,33.089 C 185.664,33.089 185.785,33.089 185.785,32.898 C 185.785,32.793 185.699,32.793 185.508,32.793 C 185.488,32.793 185.301,32.793 185.129,32.773 C 184.922,32.753 184.863,32.734 184.863,32.617 C 184.863,32.55 184.953,32.199 185,31.988 C 185.168,31.332 185.196,31.179 185.348,30.582 C 185.395,30.394 185.406,30.363 185.485,30.273 L 187.953,27.429 z "
       id="path178" />
    <path
       style="fill:black;stroke:none"
       d="M 183.406,0.257019 C 183.406,0.0230103 183.406,0 183.184,0 C 182.578,0.596985 181.711,0.596985 181.399,0.596985 L 181.399,0.893982 C 181.598,0.893982 182.188,0.893982 182.711,0.64801 L 182.711,5.81604 C 182.711,6.17102 182.684,6.29303 181.781,6.29303 L 181.461,6.29303 L 181.461,6.58899 C 181.809,6.56201 182.676,6.56201 183.074,6.56201 C 183.469,6.56201 184.336,6.56201 184.688,6.58899 L 184.688,6.29303 L 184.363,6.29303 C 183.446,6.29303 183.418,6.18701 183.418,5.82001 L 183.406,0.257019 z "
       id="path180" />
    <path
       style="fill:black;stroke:none"
       d="M 187.606,6.60101 C 187.606,5.914 187.363,5.50299 186.981,5.50299 C 186.66,5.50299 186.465,5.76099 186.465,6.04999 C 186.465,6.328 186.66,6.59698 186.988,6.59698 C 187.106,6.59698 187.235,6.55798 187.336,6.46802 C 187.363,6.44904 187.375,6.44104 187.383,6.44104 C 187.391,6.44104 187.403,6.44904 187.403,6.59698 C 187.403,7.32001 187.059,7.90601 186.731,8.22998 C 186.625,8.336 186.625,8.35498 186.625,8.38599 C 186.625,8.453 186.672,8.492 186.723,8.492 C 186.828,8.492 187.606,7.73804 187.606,6.59302 L 187.606,6.60101 z "
       id="path182" />
    <path
       style="fill:black;stroke:none"
       d="M 192.906,0.257019 C 192.906,0.0230103 192.906,0 192.684,0 C 192.078,0.596985 191.211,0.596985 190.899,0.596985 L 190.899,0.893982 C 191.098,0.893982 191.688,0.893982 192.211,0.64801 L 192.211,5.81604 C 192.211,6.17102 192.184,6.29303 191.281,6.29303 L 190.961,6.29303 L 190.961,6.58899 C 191.309,6.56201 192.176,6.56201 192.574,6.56201 C 192.969,6.56201 193.836,6.56201 194.188,6.58899 L 194.188,6.29303 L 193.863,6.29303 C 192.946,6.29303 192.918,6.18701 192.918,5.82001 L 192.906,0.257019 z "
       id="path184" />
    <path
       style="fill:none;stroke:black;stroke-width:0.79701102"
       d="M 159.375,43.402 L 131.031,15.058"
       id="path186" />
    <path
       style="fill:black;stroke:none"
       d="M 132.539,29.003 L 131.703,27.019 C 131.676,26.941 131.656,26.902 131.656,26.89 C 131.656,26.832 131.824,26.64 132.242,26.601 C 132.34,26.593 132.442,26.582 132.442,26.418 C 132.442,26.304 132.324,26.304 132.293,26.304 C 131.887,26.304 131.457,26.332 131.039,26.332 C 130.793,26.332 130.176,26.304 129.926,26.304 C 129.867,26.304 129.75,26.304 129.75,26.496 C 129.75,26.601 129.848,26.601 129.977,26.601 C 130.574,26.601 130.633,26.699 130.723,26.921 L 131.899,29.703 L 129.797,31.968 C 129.738,32.015 129.731,32.027 129.668,32.078 C 129.184,32.605 128.715,32.765 128.207,32.796 C 128.078,32.804 127.988,32.804 127.988,32.988 C 127.988,32.996 127.988,33.093 128.117,33.093 C 128.414,33.093 128.742,33.066 129.051,33.066 C 129.418,33.066 129.805,33.093 130.164,33.093 C 130.223,33.093 130.34,33.093 130.34,32.902 C 130.34,32.808 130.242,32.796 130.223,32.796 C 130.137,32.789 129.828,32.769 129.828,32.488 C 129.828,32.332 129.977,32.171 130.094,32.039 L 131.11,30.96 C 131.406,30.632 131.797,30.222 132.004,29.984 L 133.008,32.371 C 133.047,32.48 133.055,32.488 133.055,32.507 C 133.055,32.586 132.867,32.757 132.481,32.796 C 132.371,32.804 132.281,32.816 132.281,32.98 C 132.281,33.093 132.391,33.093 132.43,33.093 C 132.707,33.093 133.403,33.066 133.684,33.066 C 133.93,33.066 134.539,33.093 134.789,33.093 C 134.856,33.093 134.977,33.093 134.977,32.91 C 134.977,32.796 134.879,32.796 134.801,32.796 C 134.133,32.789 134.117,32.757 133.946,32.359 C 133.559,31.433 132.891,29.875 132.664,29.277 C 133.34,28.582 134.387,27.394 134.703,27.113 C 134.988,26.875 135.371,26.636 135.965,26.605 C 136.094,26.597 136.184,26.597 136.184,26.414 C 136.184,26.406 136.184,26.308 136.055,26.308 C 135.758,26.308 135.43,26.336 135.121,26.336 C 134.754,26.336 134.375,26.308 134.016,26.308 C 133.957,26.308 133.828,26.308 133.828,26.5 C 133.828,26.566 133.875,26.593 133.946,26.605 C 134.031,26.613 134.34,26.632 134.34,26.914 C 134.34,27.05 134.231,27.179 134.153,27.269 L 132.539,29.003 z "
       id="path188" />
    <path
       style="fill:black;stroke:none"
       d="M 128.406,3.42102 C 128.406,2.63202 128.36,1.84302 128.008,1.10901 C 127.551,0.164001 126.735,0.00299072 126.313,0.00299072 C 125.715,0.00299072 124.988,0.260986 124.578,1.17902 C 124.262,1.85901 124.211,2.62799 124.211,3.42102 C 124.211,4.16003 124.25,5.04999 124.656,5.79999 C 125.082,6.59698 125.813,6.79602 126.301,6.79602 C 126.836,6.79602 127.598,6.58899 128.035,5.65204 C 128.352,4.97198 128.403,4.203 128.403,3.42102 L 128.406,3.42102 z M 126.301,6.60101 C 125.906,6.60101 125.305,6.35498 125.121,5.40204 C 125.012,4.80798 125.012,3.89398 125.012,3.30798 C 125.012,2.67499 125.012,2.01898 125.09,1.48401 C 125.281,0.304016 126.047,0.213989 126.301,0.213989 C 126.637,0.213989 127.309,0.393982 127.5,1.375 C 127.602,1.92902 127.602,2.68298 127.602,3.30798 C 127.602,4.04999 127.602,4.72601 127.492,5.36304 C 127.34,6.30402 126.762,6.60101 126.301,6.60101 z "
       id="path190" />
    <path
       style="fill:black;stroke:none"
       d="M 130.805,6.60101 C 130.805,5.914 130.563,5.50299 130.18,5.50299 C 129.86,5.50299 129.664,5.76099 129.664,6.04999 C 129.664,6.328 129.86,6.59698 130.188,6.59698 C 130.305,6.59698 130.434,6.55798 130.535,6.46802 C 130.563,6.44904 130.574,6.44104 130.582,6.44104 C 130.59,6.44104 130.602,6.44904 130.602,6.59698 C 130.602,7.32001 130.258,7.90601 129.93,8.22998 C 129.824,8.336 129.824,8.35498 129.824,8.38599 C 129.824,8.453 129.871,8.492 129.922,8.492 C 130.028,8.492 130.805,7.73804 130.805,6.59302 L 130.805,6.60101 z "
       id="path192" />
    <path
       style="fill:black;stroke:none"
       d="M 137.906,3.42102 C 137.906,2.63202 137.86,1.84302 137.508,1.10901 C 137.051,0.164001 136.235,0.00299072 135.813,0.00299072 C 135.215,0.00299072 134.488,0.260986 134.078,1.17902 C 133.762,1.85901 133.711,2.62799 133.711,3.42102 C 133.711,4.16003 133.75,5.04999 134.156,5.79999 C 134.582,6.59698 135.313,6.79602 135.801,6.79602 C 136.336,6.79602 137.098,6.58899 137.535,5.65204 C 137.852,4.97198 137.903,4.203 137.903,3.42102 L 137.906,3.42102 z M 135.801,6.60101 C 135.406,6.60101 134.805,6.35498 134.621,5.40204 C 134.512,4.80798 134.512,3.89398 134.512,3.30798 C 134.512,2.67499 134.512,2.01898 134.59,1.48401 C 134.781,0.304016 135.547,0.213989 135.801,0.213989 C 136.137,0.213989 136.809,0.393982 137,1.375 C 137.102,1.92902 137.102,2.68298 137.102,3.30798 C 137.102,4.04999 137.102,4.72601 136.992,5.36304 C 136.84,6.30402 136.262,6.60101 135.801,6.60101 z "
       id="path194" />
    <path
       style="fill:white;stroke:none"
       d="M 158.309,43.421 L 158.309,42.429 L 160.297,42.429 L 160.297,44.418 L 158.309,44.418"
       id="path196" />
    <path
       style="fill:black;stroke:none"
       d="M 160.723,43.421 C 160.723,42.64 160.09,42.007 159.309,42.007 C 158.528,42.007 157.895,42.64 157.895,43.421 C 157.895,44.203 158.528,44.836 159.309,44.836 C 160.09,44.836 160.723,44.203 160.723,43.421"
       id="path198" />
    <path
       style="fill:none;stroke:black;stroke-width:0.79701102"
       d="M 34.653,100.093 L 62.996,128.437"
       id="path200" />
    <path
       style="fill:black;stroke:none"
       d="M 63.153,111.429 L 63.289,111.293 C 63.586,110.996 63.914,110.656 64.594,110.605 C 64.703,110.597 64.789,110.597 64.789,110.421 C 64.789,110.347 64.742,110.308 64.66,110.308 C 64.403,110.308 64.113,110.336 63.844,110.336 C 63.516,110.336 63.168,110.308 62.852,110.308 C 62.793,110.308 62.664,110.308 62.664,110.492 C 62.664,110.597 62.762,110.605 62.813,110.605 C 62.879,110.605 63.168,110.625 63.168,110.832 C 63.168,111 62.942,111.257 62.903,111.308 L 60.594,113.968 L 59.5,111.007 C 59.442,110.871 59.442,110.851 59.442,110.839 C 59.442,110.601 59.926,110.601 60.028,110.601 C 60.164,110.601 60.266,110.601 60.266,110.41 C 60.266,110.304 60.149,110.304 60.117,110.304 C 59.84,110.304 59.145,110.332 58.863,110.332 C 58.617,110.332 58,110.304 57.75,110.304 C 57.692,110.304 57.563,110.304 57.563,110.496 C 57.563,110.601 57.66,110.601 57.789,110.601 C 58.387,110.601 58.426,110.691 58.516,110.941 L 59.738,114.222 C 59.746,114.25 59.778,114.359 59.778,114.39 C 59.778,114.418 59.383,116.027 59.332,116.207 C 59.203,116.753 59.196,116.785 58.399,116.793 C 58.211,116.793 58.133,116.793 58.133,116.984 C 58.133,117.089 58.25,117.089 58.27,117.089 C 58.547,117.089 59.246,117.062 59.524,117.062 C 59.801,117.062 60.516,117.089 60.797,117.089 C 60.863,117.089 60.985,117.089 60.985,116.898 C 60.985,116.793 60.899,116.793 60.707,116.793 C 60.688,116.793 60.5,116.793 60.328,116.773 C 60.121,116.753 60.063,116.734 60.063,116.617 C 60.063,116.55 60.153,116.199 60.199,115.988 C 60.367,115.332 60.395,115.179 60.547,114.582 C 60.594,114.394 60.606,114.363 60.684,114.273 L 63.153,111.429 z "
       id="path202" />
    <path
       style="fill:black;stroke:none"
       d="M 60.305,138.121 C 60.305,137.332 60.258,136.543 59.906,135.808 C 59.449,134.863 58.633,134.703 58.211,134.703 C 57.613,134.703 56.887,134.96 56.477,135.878 C 56.16,136.558 56.11,137.328 56.11,138.121 C 56.11,138.859 56.149,139.75 56.555,140.5 C 56.981,141.296 57.711,141.496 58.199,141.496 C 58.735,141.496 59.496,141.289 59.934,140.351 C 60.25,139.671 60.301,138.902 60.301,138.121 L 60.305,138.121 z M 58.199,141.3 C 57.805,141.3 57.203,141.054 57.02,140.101 C 56.91,139.507 56.91,138.593 56.91,138.007 C 56.91,137.375 56.91,136.718 56.988,136.183 C 57.18,135.003 57.946,134.914 58.199,134.914 C 58.535,134.914 59.207,135.093 59.399,136.074 C 59.5,136.628 59.5,137.382 59.5,138.007 C 59.5,138.75 59.5,139.425 59.391,140.062 C 59.238,141.003 58.66,141.3 58.199,141.3 z "
       id="path204" />
    <path
       style="fill:black;stroke:none"
       d="M 62.805,141.3 C 62.805,140.613 62.563,140.203 62.18,140.203 C 61.86,140.203 61.664,140.46 61.664,140.75 C 61.664,141.027 61.86,141.296 62.188,141.296 C 62.305,141.296 62.434,141.257 62.535,141.168 C 62.563,141.148 62.574,141.14 62.582,141.14 C 62.59,141.14 62.602,141.148 62.602,141.296 C 62.602,142.019 62.258,142.605 61.93,142.929 C 61.824,143.035 61.824,143.054 61.824,143.086 C 61.824,143.152 61.871,143.191 61.922,143.191 C 62.028,143.191 62.805,142.437 62.805,141.293 L 62.805,141.3 z "
       id="path206" />
    <path
       style="fill:black;stroke:none"
       d="M 69.805,138.121 C 69.805,137.332 69.758,136.543 69.406,135.808 C 68.949,134.863 68.133,134.703 67.711,134.703 C 67.113,134.703 66.387,134.96 65.977,135.878 C 65.66,136.558 65.61,137.328 65.61,138.121 C 65.61,138.859 65.649,139.75 66.055,140.5 C 66.481,141.296 67.211,141.496 67.699,141.496 C 68.235,141.496 68.996,141.289 69.434,140.351 C 69.75,139.671 69.801,138.902 69.801,138.121 L 69.805,138.121 z M 67.699,141.3 C 67.305,141.3 66.703,141.054 66.52,140.101 C 66.41,139.507 66.41,138.593 66.41,138.007 C 66.41,137.375 66.41,136.718 66.488,136.183 C 66.68,135.003 67.446,134.914 67.699,134.914 C 68.035,134.914 68.707,135.093 68.899,136.074 C 69,136.628 69,137.382 69,138.007 C 69,138.75 69,139.425 68.891,140.062 C 68.738,141.003 68.16,141.3 67.699,141.3 z "
       id="path208" />
    <path
       style="fill:none;stroke:black;stroke-width:0.79701102"
       d="M 34.653,100.093 L 6.309,128.437"
       id="path210" />
    <path
       style="fill:black;stroke:none"
       d="M 7.738,113.003 L 6.90301,111.019 C 6.87501,110.941 6.85601,110.902 6.85601,110.89 C 6.85601,110.832 7.02401,110.64 7.44201,110.601 C 7.53901,110.593 7.641,110.582 7.641,110.418 C 7.641,110.304 7.52401,110.304 7.492,110.304 C 7.08601,110.304 6.656,110.332 6.238,110.332 C 5.992,110.332 5.37501,110.304 5.12501,110.304 C 5.06701,110.304 4.949,110.304 4.949,110.496 C 4.949,110.601 5.047,110.601 5.176,110.601 C 5.77401,110.601 5.83201,110.699 5.922,110.921 L 7.098,113.703 L 4.99601,115.968 C 4.938,116.015 4.93,116.027 4.867,116.078 C 4.383,116.605 3.91401,116.765 3.406,116.796 C 3.27801,116.804 3.188,116.804 3.188,116.988 C 3.188,116.996 3.188,117.093 3.31701,117.093 C 3.613,117.093 3.94201,117.066 4.25001,117.066 C 4.617,117.066 5.00401,117.093 5.363,117.093 C 5.422,117.093 5.53901,117.093 5.53901,116.902 C 5.53901,116.808 5.44201,116.796 5.422,116.796 C 5.33601,116.789 5.02801,116.769 5.02801,116.488 C 5.02801,116.332 5.176,116.171 5.29301,116.039 L 6.309,114.96 C 6.60601,114.632 6.99601,114.222 7.20301,113.984 L 8.20701,116.371 C 8.24601,116.48 8.25401,116.488 8.25401,116.507 C 8.25401,116.586 8.06701,116.757 7.68,116.796 C 7.57,116.804 7.48101,116.816 7.48101,116.98 C 7.48101,117.093 7.59,117.093 7.62901,117.093 C 7.906,117.093 8.602,117.066 8.883,117.066 C 9.12901,117.066 9.738,117.093 9.988,117.093 C 10.055,117.093 10.176,117.093 10.176,116.91 C 10.176,116.796 10.078,116.796 10,116.796 C 9.33201,116.789 9.31701,116.757 9.145,116.359 C 8.758,115.433 8.09,113.875 7.863,113.277 C 8.53901,112.582 9.58601,111.394 9.90301,111.113 C 10.188,110.875 10.57,110.636 11.164,110.605 C 11.293,110.597 11.383,110.597 11.383,110.414 C 11.383,110.406 11.383,110.308 11.254,110.308 C 10.957,110.308 10.629,110.336 10.32,110.336 C 9.95301,110.336 9.574,110.308 9.215,110.308 C 9.156,110.308 9.02801,110.308 9.02801,110.5 C 9.02801,110.566 9.074,110.593 9.145,110.605 C 9.23101,110.613 9.53901,110.632 9.53901,110.914 C 9.53901,111.05 9.43,111.179 9.352,111.269 L 7.738,113.003 z "
       id="path212" />
    <path
       style="fill:black;stroke:none"
       d="M 2.008,134.957 C 2.008,134.722 2.008,134.699 1.785,134.699 C 1.18,135.296 0.313004,135.296 0,135.296 L 0,135.593 C 0.199005,135.593 0.789009,135.593 1.313,135.347 L 1.313,140.515 C 1.313,140.871 1.285,140.992 0.383003,140.992 L 0.0630035,140.992 L 0.0630035,141.289 C 0.410004,141.261 1.27801,141.261 1.676,141.261 C 2.07,141.261 2.938,141.261 3.28901,141.289 L 3.28901,140.992 L 2.965,140.992 C 2.047,140.992 2.02,140.886 2.02,140.519 L 2.008,134.957 z "
       id="path214" />
    <path
       style="fill:black;stroke:none"
       d="M 6.10601,141.3 C 6.10601,140.613 5.863,140.203 5.48101,140.203 C 5.16,140.203 4.965,140.46 4.965,140.75 C 4.965,141.027 5.16,141.296 5.488,141.296 C 5.60601,141.296 5.73501,141.257 5.83601,141.168 C 5.863,141.148 5.87501,141.14 5.883,141.14 C 5.891,141.14 5.90301,141.148 5.90301,141.296 C 5.90301,142.019 5.559,142.605 5.23101,142.929 C 5.12501,143.035 5.12501,143.054 5.12501,143.086 C 5.12501,143.152 5.172,143.191 5.223,143.191 C 5.32801,143.191 6.10601,142.437 6.10601,141.293 L 6.10601,141.3 z "
       id="path216" />
    <path
       style="fill:black;stroke:none"
       d="M 11.508,134.957 C 11.508,134.722 11.508,134.699 11.285,134.699 C 10.68,135.296 9.813,135.296 9.50001,135.296 L 9.50001,135.593 C 9.699,135.593 10.289,135.593 10.813,135.347 L 10.813,140.515 C 10.813,140.871 10.785,140.992 9.883,140.992 L 9.563,140.992 L 9.563,141.289 C 9.91,141.261 10.778,141.261 11.176,141.261 C 11.57,141.261 12.438,141.261 12.789,141.289 L 12.789,140.992 L 12.465,140.992 C 11.547,140.992 11.52,140.886 11.52,140.519 L 11.508,134.957 z "
       id="path218" />
    <path
       style="fill:white;stroke:none"
       d="M 33.629,100.058 L 33.629,99.066 L 35.617,99.066 L 35.617,101.054 L 33.629,101.054"
       id="path220" />
    <path
       style="fill:black;stroke:none"
       d="M 36.043,100.058 C 36.043,99.277 35.41,98.644 34.629,98.644 C 33.848,98.644 33.215,99.277 33.215,100.058 C 33.215,100.839 33.848,101.472 34.629,101.472 C 35.41,101.472 36.043,100.839 36.043,100.058"
       id="path222" />
    <path
       style="fill:none;stroke:black;stroke-width:0.79701102"
       d="M 159.375,100.093 L 187.719,128.437"
       id="path224" />
    <path
       style="fill:black;stroke:none"
       d="M 187.953,111.429 L 188.09,111.293 C 188.387,110.996 188.715,110.656 189.395,110.605 C 189.504,110.597 189.59,110.597 189.59,110.421 C 189.59,110.347 189.543,110.308 189.461,110.308 C 189.203,110.308 188.914,110.336 188.645,110.336 C 188.317,110.336 187.969,110.308 187.653,110.308 C 187.594,110.308 187.465,110.308 187.465,110.492 C 187.465,110.597 187.563,110.605 187.613,110.605 C 187.68,110.605 187.969,110.625 187.969,110.832 C 187.969,111 187.742,111.257 187.703,111.308 L 185.395,113.968 L 184.301,111.007 C 184.242,110.871 184.242,110.851 184.242,110.839 C 184.242,110.601 184.727,110.601 184.828,110.601 C 184.965,110.601 185.067,110.601 185.067,110.41 C 185.067,110.304 184.949,110.304 184.918,110.304 C 184.641,110.304 183.946,110.332 183.664,110.332 C 183.418,110.332 182.801,110.304 182.551,110.304 C 182.492,110.304 182.363,110.304 182.363,110.496 C 182.363,110.601 182.461,110.601 182.59,110.601 C 183.188,110.601 183.227,110.691 183.317,110.941 L 184.539,114.222 C 184.547,114.25 184.578,114.359 184.578,114.39 C 184.578,114.418 184.184,116.027 184.133,116.207 C 184.004,116.753 183.996,116.785 183.199,116.793 C 183.012,116.793 182.934,116.793 182.934,116.984 C 182.934,117.089 183.051,117.089 183.07,117.089 C 183.348,117.089 184.047,117.062 184.324,117.062 C 184.602,117.062 185.317,117.089 185.598,117.089 C 185.664,117.089 185.785,117.089 185.785,116.898 C 185.785,116.793 185.699,116.793 185.508,116.793 C 185.488,116.793 185.301,116.793 185.129,116.773 C 184.922,116.753 184.863,116.734 184.863,116.617 C 184.863,116.55 184.953,116.199 185,115.988 C 185.168,115.332 185.196,115.179 185.348,114.582 C 185.395,114.394 185.406,114.363 185.485,114.273 L 187.953,111.429 z "
       id="path226" />
    <path
       style="fill:black;stroke:none"
       d="M 183.406,134.957 C 183.406,134.722 183.406,134.699 183.184,134.699 C 182.578,135.296 181.711,135.296 181.399,135.296 L 181.399,135.593 C 181.598,135.593 182.188,135.593 182.711,135.347 L 182.711,140.515 C 182.711,140.871 182.684,140.992 181.781,140.992 L 181.461,140.992 L 181.461,141.289 C 181.809,141.261 182.676,141.261 183.074,141.261 C 183.469,141.261 184.336,141.261 184.688,141.289 L 184.688,140.992 L 184.363,140.992 C 183.446,140.992 183.418,140.886 183.418,140.519 L 183.406,134.957 z "
       id="path228" />
    <path
       style="fill:black;stroke:none"
       d="M 187.606,141.3 C 187.606,140.613 187.363,140.203 186.981,140.203 C 186.66,140.203 186.465,140.46 186.465,140.75 C 186.465,141.027 186.66,141.296 186.988,141.296 C 187.106,141.296 187.235,141.257 187.336,141.168 C 187.363,141.148 187.375,141.14 187.383,141.14 C 187.391,141.14 187.403,141.148 187.403,141.296 C 187.403,142.019 187.059,142.605 186.731,142.929 C 186.625,143.035 186.625,143.054 186.625,143.086 C 186.625,143.152 186.672,143.191 186.723,143.191 C 186.828,143.191 187.606,142.437 187.606,141.293 L 187.606,141.3 z "
       id="path230" />
    <path
       style="fill:black;stroke:none"
       d="M 192.906,134.957 C 192.906,134.722 192.906,134.699 192.684,134.699 C 192.078,135.296 191.211,135.296 190.899,135.296 L 190.899,135.593 C 191.098,135.593 191.688,135.593 192.211,135.347 L 192.211,140.515 C 192.211,140.871 192.184,140.992 191.281,140.992 L 190.961,140.992 L 190.961,141.289 C 191.309,141.261 192.176,141.261 192.574,141.261 C 192.969,141.261 193.836,141.261 194.188,141.289 L 194.188,140.992 L 193.863,140.992 C 192.946,140.992 192.918,140.886 192.918,140.519 L 192.906,134.957 z "
       id="path232" />
    <path
       style="fill:none;stroke:black;stroke-width:0.79701102"
       d="M 159.375,100.093 L 131.031,128.437"
       id="path234" />
    <path
       style="fill:black;stroke:none"
       d="M 132.539,113.003 L 131.703,111.019 C 131.676,110.941 131.656,110.902 131.656,110.89 C 131.656,110.832 131.824,110.64 132.242,110.601 C 132.34,110.593 132.442,110.582 132.442,110.418 C 132.442,110.304 132.324,110.304 132.293,110.304 C 131.887,110.304 131.457,110.332 131.039,110.332 C 130.793,110.332 130.176,110.304 129.926,110.304 C 129.867,110.304 129.75,110.304 129.75,110.496 C 129.75,110.601 129.848,110.601 129.977,110.601 C 130.574,110.601 130.633,110.699 130.723,110.921 L 131.899,113.703 L 129.797,115.968 C 129.738,116.015 129.731,116.027 129.668,116.078 C 129.184,116.605 128.715,116.765 128.207,116.796 C 128.078,116.804 127.988,116.804 127.988,116.988 C 127.988,116.996 127.988,117.093 128.117,117.093 C 128.414,117.093 128.742,117.066 129.051,117.066 C 129.418,117.066 129.805,117.093 130.164,117.093 C 130.223,117.093 130.34,117.093 130.34,116.902 C 130.34,116.808 130.242,116.796 130.223,116.796 C 130.137,116.789 129.828,116.769 129.828,116.488 C 129.828,116.332 129.977,116.171 130.094,116.039 L 131.11,114.96 C 131.406,114.632 131.797,114.222 132.004,113.984 L 133.008,116.371 C 133.047,116.48 133.055,116.488 133.055,116.507 C 133.055,116.586 132.867,116.757 132.481,116.796 C 132.371,116.804 132.281,116.816 132.281,116.98 C 132.281,117.093 132.391,117.093 132.43,117.093 C 132.707,117.093 133.403,117.066 133.684,117.066 C 133.93,117.066 134.539,117.093 134.789,117.093 C 134.856,117.093 134.977,117.093 134.977,116.91 C 134.977,116.796 134.879,116.796 134.801,116.796 C 134.133,116.789 134.117,116.757 133.946,116.359 C 133.559,115.433 132.891,113.875 132.664,113.277 C 133.34,112.582 134.387,111.394 134.703,111.113 C 134.988,110.875 135.371,110.636 135.965,110.605 C 136.094,110.597 136.184,110.597 136.184,110.414 C 136.184,110.406 136.184,110.308 136.055,110.308 C 135.758,110.308 135.43,110.336 135.121,110.336 C 134.754,110.336 134.375,110.308 134.016,110.308 C 133.957,110.308 133.828,110.308 133.828,110.5 C 133.828,110.566 133.875,110.593 133.946,110.605 C 134.031,110.613 134.34,110.632 134.34,110.914 C 134.34,111.05 134.231,111.179 134.153,111.269 L 132.539,113.003 z "
       id="path236" />
    <path
       style="fill:black;stroke:none"
       d="M 128.406,138.121 C 128.406,137.332 128.36,136.543 128.008,135.808 C 127.551,134.863 126.735,134.703 126.313,134.703 C 125.715,134.703 124.988,134.96 124.578,135.878 C 124.262,136.558 124.211,137.328 124.211,138.121 C 124.211,138.859 124.25,139.75 124.656,140.5 C 125.082,141.296 125.813,141.496 126.301,141.496 C 126.836,141.496 127.598,141.289 128.035,140.351 C 128.352,139.671 128.403,138.902 128.403,138.121 L 128.406,138.121 z M 126.301,141.3 C 125.906,141.3 125.305,141.054 125.121,140.101 C 125.012,139.507 125.012,138.593 125.012,138.007 C 125.012,137.375 125.012,136.718 125.09,136.183 C 125.281,135.003 126.047,134.914 126.301,134.914 C 126.637,134.914 127.309,135.093 127.5,136.074 C 127.602,136.628 127.602,137.382 127.602,138.007 C 127.602,138.75 127.602,139.425 127.492,140.062 C 127.34,141.003 126.762,141.3 126.301,141.3 z "
       id="path238" />
    <path
       style="fill:black;stroke:none"
       d="M 130.805,141.3 C 130.805,140.613 130.563,140.203 130.18,140.203 C 129.86,140.203 129.664,140.46 129.664,140.75 C 129.664,141.027 129.86,141.296 130.188,141.296 C 130.305,141.296 130.434,141.257 130.535,141.168 C 130.563,141.148 130.574,141.14 130.582,141.14 C 130.59,141.14 130.602,141.148 130.602,141.296 C 130.602,142.019 130.258,142.605 129.93,142.929 C 129.824,143.035 129.824,143.054 129.824,143.086 C 129.824,143.152 129.871,143.191 129.922,143.191 C 130.028,143.191 130.805,142.437 130.805,141.293 L 130.805,141.3 z "
       id="path240" />
    <path
       style="fill:black;stroke:none"
       d="M 137.906,138.121 C 137.906,137.332 137.86,136.543 137.508,135.808 C 137.051,134.863 136.235,134.703 135.813,134.703 C 135.215,134.703 134.488,134.96 134.078,135.878 C 133.762,136.558 133.711,137.328 133.711,138.121 C 133.711,138.859 133.75,139.75 134.156,140.5 C 134.582,141.296 135.313,141.496 135.801,141.496 C 136.336,141.496 137.098,141.289 137.535,140.351 C 137.852,139.671 137.903,138.902 137.903,138.121 L 137.906,138.121 z M 135.801,141.3 C 135.406,141.3 134.805,141.054 134.621,140.101 C 134.512,139.507 134.512,138.593 134.512,138.007 C 134.512,137.375 134.512,136.718 134.59,136.183 C 134.781,135.003 135.547,134.914 135.801,134.914 C 136.137,134.914 136.809,135.093 137,136.074 C 137.102,136.628 137.102,137.382 137.102,138.007 C 137.102,138.75 137.102,139.425 136.992,140.062 C 136.84,141.003 136.262,141.3 135.801,141.3 z "
       id="path242" />
    <path
       style="fill:white;stroke:none"
       d="M 158.309,100.058 L 158.309,99.066 L 160.297,99.066 L 160.297,101.054 L 158.309,101.054"
       id="path244" />
    <path
       style="fill:black;stroke:none"
       d="M 160.723,100.058 C 160.723,99.277 160.09,98.644 159.309,98.644 C 158.528,98.644 157.895,99.277 157.895,100.058 C 157.895,100.839 158.528,101.472 159.309,101.472 C 160.09,101.472 160.723,100.839 160.723,100.058"
       id="path246" />
  </g>
</svg>
